<svg width="183" height="40" viewBox="0 0 183 40" fill="none" xmlns="http://www.w3.org/2000/svg">
<g clip-path="url(#clip0)">
<path d="M19.9666 13.6895V4.00668C19.9666 2.33723 21.3022 1.00167 22.9716 1.00167C24.6411 1.00167 25.9766 2.33723 25.9766 4.00668V5.67613C25.9766 7.14524 27.1786 8.34725 28.6478 8.34725C30.1169 8.34725 31.3189 7.14524 31.3189 5.67613V0.333893" stroke="#839594" stroke-width="2" stroke-miterlimit="10"/>
<path d="M8.81466 27.0451C5.94321 27.0451 3.40564 25.5092 2.00331 23.1719L1.13519 35.0584C1.13519 37.596 3.20531 39.7329 5.80965 39.7329C7.87977 39.7329 9.68277 38.3973 10.2838 36.394L14.0233 25.1085C12.5542 26.3105 10.7512 27.0451 8.81466 27.0451Z" fill="#F3F3F3"/>
<path d="M31.3189 27.0451C34.1903 27.0451 36.7279 25.5092 38.1302 23.1719L38.9315 35.0584C38.9315 37.596 36.8614 39.7329 34.2571 39.7329C32.187 39.7329 30.384 38.3973 29.783 36.394L26.0434 25.1085C27.5125 26.3105 29.3155 27.0451 31.3189 27.0451Z" fill="#F3F3F3"/>
<path d="M20.0334 28.3806C19.9666 28.1803 19.9666 27.9132 19.9666 27.7128C19.9666 27.9132 19.9666 28.1803 19.8998 28.3806H20.0334Z" fill="#38454F"/>
<path d="M26.5108 26.3105L26.1102 25.1753C26.177 25.2421 26.2437 25.2421 26.3105 25.3088C24.5075 23.8397 23.3055 21.636 23.3055 19.0985C23.3055 16.6945 24.3739 14.5576 26.0434 13.0885H14.1569C15.8264 14.5576 16.8948 16.6945 16.8948 19.0985C16.8948 21.5025 15.8264 23.6394 14.1569 25.1085C14.2237 25.1753 14.2905 25.3088 14.2905 25.3756C14.8915 24.7746 15.6928 24.3739 16.6277 24.3739C18.4307 24.3739 19.8998 25.8431 19.9666 27.5793C20.0334 25.7763 21.5025 24.3739 23.3055 24.3739C24.6411 24.3739 25.8431 25.1753 26.3773 26.3773C26.4441 26.3105 26.4441 26.3105 26.5108 26.3105Z" fill="#F3F3F3"/>
<path d="M8.68114 27.7129C13.4756 27.7129 17.3623 23.8262 17.3623 19.0317C17.3623 14.2373 13.4756 10.3506 8.68114 10.3506C3.88668 10.3506 0 14.2373 0 19.0317C0 23.8262 3.88668 27.7129 8.68114 27.7129Z" fill="#F4F4F4"/>
<path d="M31.3857 27.7129C36.1801 27.7129 40.0668 23.8262 40.0668 19.0317C40.0668 14.2373 36.1801 10.3506 31.3857 10.3506C26.5912 10.3506 22.7045 14.2373 22.7045 19.0317C22.7045 23.8262 26.5912 27.7129 31.3857 27.7129Z" fill="#F4F4F4"/>
<path d="M16.6277 31.0518C18.4717 31.0518 19.9666 29.5569 19.9666 27.7129C19.9666 25.8688 18.4717 24.374 16.6277 24.374C14.7837 24.374 13.2888 25.8688 13.2888 27.7129C13.2888 29.5569 14.7837 31.0518 16.6277 31.0518Z" fill="#283238"/>
<path d="M23.3055 31.0518C25.1495 31.0518 26.6444 29.5569 26.6444 27.7129C26.6444 25.8688 25.1495 24.374 23.3055 24.374C21.4615 24.374 19.9666 25.8688 19.9666 27.7129C19.9666 29.5569 21.4615 31.0518 23.3055 31.0518Z" fill="#283238"/>
<path d="M19.2988 16.3606H20.6344" stroke="#AFB6BB" stroke-width="2" stroke-miterlimit="10" stroke-linecap="round"/>
<path d="M35.6594 20.3673C36.5815 20.3673 37.3289 19.6198 37.3289 18.6978C37.3289 17.7758 36.5815 17.0284 35.6594 17.0284C34.7374 17.0284 33.99 17.7758 33.99 18.6978C33.99 19.6198 34.7374 20.3673 35.6594 20.3673Z" stroke="#DD352E" stroke-width="2" stroke-miterlimit="10"/>
<path d="M26.9783 20.3673C27.9003 20.3673 28.6477 19.6198 28.6477 18.6978C28.6477 17.7758 27.9003 17.0284 26.9783 17.0284C26.0563 17.0284 25.3088 17.7758 25.3088 18.6978C25.3088 19.6198 26.0563 20.3673 26.9783 20.3673Z" stroke="#BF4D90" stroke-width="2" stroke-miterlimit="10"/>
<path d="M12.1536 17.6962H9.9499V15.4925C9.9499 15.2254 9.74957 15.0251 9.48246 15.0251H7.74623C7.47912 15.0251 7.27878 15.2254 7.27878 15.4925V17.6962H5.07511C4.808 17.6962 4.60767 17.8965 4.60767 18.1636V19.8998C4.60767 20.167 4.808 20.3673 5.07511 20.3673H7.27878V22.571C7.27878 22.8381 7.47912 23.0384 7.74623 23.0384H9.48246C9.74957 23.0384 9.9499 22.8381 9.9499 22.571V20.3673H12.1536C12.4207 20.3673 12.621 20.167 12.621 19.8998V18.1636C12.621 17.8965 12.4207 17.6962 12.1536 17.6962Z" fill="#283238" stroke="#38454F" stroke-width="2" stroke-miterlimit="10" stroke-linecap="round"/>
<path d="M31.3189 24.0401C32.2409 24.0401 32.9883 23.2926 32.9883 22.3706C32.9883 21.4486 32.2409 20.7012 31.3189 20.7012C30.3969 20.7012 29.6494 21.4486 29.6494 22.3706C29.6494 23.2926 30.3969 24.0401 31.3189 24.0401Z" stroke="#5D7BDB" stroke-width="2" stroke-miterlimit="10"/>
<path d="M31.3189 16.6945C32.2409 16.6945 32.9883 15.9471 32.9883 15.025C32.9883 14.103 32.2409 13.3556 31.3189 13.3556C30.3969 13.3556 29.6494 14.103 29.6494 15.025C29.6494 15.9471 30.3969 16.6945 31.3189 16.6945Z" stroke="#20BEE2" stroke-width="2" stroke-miterlimit="10"/>
</g>
<path d="M75.6494 29.7539C74.9902 30.5433 74.0584 31.1577 72.854 31.5972C71.6496 32.0285 70.3149 32.2441 68.8501 32.2441C67.312 32.2441 65.9611 31.9105 64.7974 31.2432C63.6418 30.5677 62.7466 29.5911 62.1118 28.3135C61.4852 27.0358 61.1637 25.5343 61.1475 23.8091V22.6006C61.1475 20.8265 61.4445 19.2925 62.0386 17.9985C62.6408 16.6965 63.5034 15.7036 64.6265 15.02C65.7576 14.3283 67.0801 13.9824 68.5938 13.9824C70.7015 13.9824 72.3494 14.487 73.5376 15.4961C74.7257 16.4971 75.4297 17.9578 75.6494 19.8784H72.085C71.9222 18.8612 71.5601 18.1165 70.9985 17.6445C70.4451 17.1725 69.6802 16.9365 68.7036 16.9365C67.4585 16.9365 66.5104 17.4045 65.8594 18.3403C65.2083 19.2762 64.8787 20.6678 64.8706 22.5151V23.6504C64.8706 25.514 65.2246 26.9219 65.9326 27.874C66.6406 28.8262 67.6782 29.3022 69.0454 29.3022C70.4207 29.3022 71.4014 29.0093 71.9873 28.4233V25.3594H68.6548V22.6616H75.6494V29.7539ZM86.0498 32C85.887 31.6826 85.769 31.2879 85.6958 30.8159C84.8413 31.7681 83.7305 32.2441 82.3633 32.2441C81.0693 32.2441 79.9951 31.8698 79.1406 31.1211C78.2943 30.3724 77.8711 29.4284 77.8711 28.2891C77.8711 26.8893 78.3879 25.8151 79.4214 25.0664C80.4631 24.3177 81.9645 23.9393 83.9258 23.9312H85.5493V23.1743C85.5493 22.564 85.3906 22.0757 85.0732 21.7095C84.764 21.3433 84.2716 21.1602 83.5962 21.1602C83.0021 21.1602 82.5342 21.3026 82.1924 21.5874C81.8587 21.8722 81.6919 22.2629 81.6919 22.7593H78.1641C78.1641 21.9943 78.4001 21.2863 78.8721 20.6353C79.3441 19.9842 80.0114 19.4756 80.874 19.1094C81.7367 18.735 82.7051 18.5479 83.7793 18.5479C85.4069 18.5479 86.6968 18.9588 87.6489 19.7808C88.6092 20.5946 89.0894 21.742 89.0894 23.2231V28.9482C89.0975 30.2015 89.2725 31.1496 89.6143 31.7925V32H86.0498ZM83.1323 29.5464C83.6532 29.5464 84.1333 29.4325 84.5728 29.2046C85.0122 28.9686 85.3377 28.6553 85.5493 28.2646V25.9941H84.231C82.465 25.9941 81.5251 26.6045 81.4111 27.8252L81.3989 28.0327C81.3989 28.4722 81.5535 28.8343 81.8628 29.1191C82.172 29.404 82.5952 29.5464 83.1323 29.5464ZM95.1074 18.792L95.2173 20.269C96.1532 19.1216 97.4186 18.5479 99.0137 18.5479C100.715 18.5479 101.882 19.2192 102.517 20.562C103.445 19.2192 104.767 18.5479 106.484 18.5479C107.917 18.5479 108.983 18.967 109.683 19.8052C110.382 20.6353 110.732 21.8885 110.732 23.5649V32H107.192V23.5771C107.192 22.8285 107.046 22.2832 106.753 21.9414C106.46 21.5915 105.943 21.4165 105.203 21.4165C104.145 21.4165 103.412 21.9211 103.005 22.9302L103.018 32H99.4897V23.5894C99.4897 22.8244 99.3392 22.271 99.0381 21.9292C98.737 21.5874 98.2243 21.4165 97.5 21.4165C96.499 21.4165 95.7747 21.8315 95.3271 22.6616V32H91.7993V18.792H95.1074ZM119.534 32.2441C117.597 32.2441 116.018 31.6501 114.797 30.4619C113.585 29.2738 112.979 27.6909 112.979 25.7134V25.3716C112.979 24.0451 113.235 22.861 113.748 21.8193C114.26 20.7695 114.985 19.9639 115.92 19.4023C116.864 18.8327 117.939 18.5479 119.143 18.5479C120.95 18.5479 122.37 19.1175 123.403 20.2568C124.445 21.3962 124.966 23.0116 124.966 25.103V26.5435H116.555C116.669 27.4061 117.011 28.0978 117.581 28.6187C118.158 29.1395 118.887 29.3999 119.766 29.3999C121.125 29.3999 122.187 28.9076 122.952 27.9229L124.685 29.8638C124.156 30.6125 123.44 31.1984 122.537 31.6216C121.633 32.0366 120.632 32.2441 119.534 32.2441ZM119.131 21.4043C118.431 21.4043 117.861 21.6403 117.422 22.1123C116.991 22.5843 116.714 23.2598 116.592 24.1387H121.499V23.8579C121.483 23.0767 121.271 22.4744 120.864 22.0513C120.457 21.62 119.88 21.4043 119.131 21.4043Z" fill="#F3F3F3"/>
<path d="M133.3 24.0776C131.29 23.4998 129.825 22.7918 128.905 21.9536C127.994 21.1073 127.538 20.0656 127.538 18.8286C127.538 17.4289 128.096 16.2733 129.21 15.3618C130.333 14.4422 131.79 13.9824 133.581 13.9824C134.801 13.9824 135.888 14.2184 136.84 14.6904C137.8 15.1624 138.541 15.8135 139.062 16.6436C139.59 17.4736 139.855 18.381 139.855 19.3657H137.499C137.499 18.2915 137.157 17.4492 136.474 16.8389C135.79 16.2204 134.826 15.9111 133.581 15.9111C132.425 15.9111 131.522 16.1675 130.871 16.6802C130.228 17.1847 129.906 17.8887 129.906 18.792C129.906 19.5163 130.211 20.1307 130.822 20.6353C131.44 21.1317 132.486 21.5874 133.959 22.0024C135.44 22.4175 136.596 22.8773 137.426 23.3818C138.264 23.8783 138.882 24.4601 139.281 25.1274C139.688 25.7948 139.892 26.5801 139.892 27.4834C139.892 28.9238 139.33 30.0794 138.207 30.9502C137.084 31.8128 135.583 32.2441 133.703 32.2441C132.482 32.2441 131.343 32.0122 130.285 31.5483C129.227 31.0763 128.409 30.4334 127.831 29.6196C127.261 28.8058 126.977 27.8822 126.977 26.8486H129.333C129.333 27.9229 129.727 28.7733 130.517 29.3999C131.314 30.0184 132.376 30.3276 133.703 30.3276C134.94 30.3276 135.888 30.0754 136.547 29.5708C137.206 29.0662 137.536 28.3786 137.536 27.5078C137.536 26.637 137.23 25.9657 136.62 25.4937C136.01 25.0135 134.903 24.5415 133.3 24.0776ZM144.811 20.3911C145.812 19.1623 147.114 18.5479 148.717 18.5479C151.509 18.5479 152.917 20.1226 152.941 23.272V32H150.683V23.2598C150.674 22.3076 150.455 21.6037 150.023 21.1479C149.6 20.6922 148.937 20.4644 148.034 20.4644C147.301 20.4644 146.658 20.6597 146.105 21.0503C145.552 21.4409 145.12 21.9536 144.811 22.5884V32H142.553V13.25H144.811V20.3911ZM155.724 25.2739C155.724 23.98 155.976 22.8162 156.481 21.7827C156.994 20.7492 157.702 19.9517 158.605 19.3901C159.516 18.8286 160.554 18.5479 161.718 18.5479C163.516 18.5479 164.969 19.1704 166.076 20.4155C167.191 21.6606 167.748 23.3167 167.748 25.3838V25.5425C167.748 26.8283 167.5 27.9839 167.003 29.0093C166.515 30.0265 165.811 30.82 164.892 31.3896C163.98 31.9593 162.93 32.2441 161.742 32.2441C159.952 32.2441 158.499 31.6216 157.384 30.3765C156.278 29.1313 155.724 27.4834 155.724 25.4326V25.2739ZM157.995 25.5425C157.995 27.0073 158.332 28.1833 159.008 29.0703C159.691 29.9574 160.603 30.4009 161.742 30.4009C162.89 30.4009 163.801 29.9533 164.477 29.0581C165.152 28.1548 165.49 26.8934 165.49 25.2739C165.49 23.8254 165.144 22.6535 164.452 21.7583C163.769 20.855 162.857 20.4033 161.718 20.4033C160.603 20.4033 159.704 20.8468 159.02 21.7339C158.336 22.6209 157.995 23.8905 157.995 25.5425ZM181.737 25.5425C181.737 27.5526 181.278 29.172 180.358 30.4009C179.438 31.6297 178.193 32.2441 176.623 32.2441C175.019 32.2441 173.758 31.7355 172.838 30.7183V37.0781H170.58V18.792H172.643L172.753 20.2568C173.673 19.1175 174.95 18.5479 176.586 18.5479C178.173 18.5479 179.426 19.146 180.346 20.3423C181.273 21.5386 181.737 23.2028 181.737 25.335V25.5425ZM179.479 25.2861C179.479 23.7969 179.162 22.6209 178.527 21.7583C177.892 20.8957 177.021 20.4644 175.915 20.4644C174.547 20.4644 173.522 21.0706 172.838 22.2832V28.5942C173.514 29.7987 174.547 30.4009 175.939 30.4009C177.021 30.4009 177.88 29.9736 178.515 29.1191C179.158 28.2565 179.479 26.9788 179.479 25.2861Z" fill="#D01418"/>
<defs>
<clipPath id="clip0">
<rect width="40" height="40" fill="white"/>
</clipPath>
</defs>
</svg>
